<?xml version="1.0" standalone="no"?>
<svg viewBox="0 0 200 200"  xmlns="http://www.w3.org/2000/svg">
<polyline points="0, 200 0.1, 199.99 0.2, 199.96 0.30000000000000004, 199.91 0.4, 199.84 0.5, 199.75 0.6000000000000001, 199.64 0.7000000000000001, 199.51 0.8, 199.36 0.9, 199.19 1, 199 1.1, 198.79 1.2000000000000002, 198.56 1.3, 198.31 1.4000000000000001, 198.04 1.5, 197.75 1.6, 197.44 1.7000000000000002, 197.11 1.8, 196.76 1.9000000000000001, 196.39 2, 196 2.1, 195.59 2.2, 195.16 2.3000000000000003, 194.71 2.4000000000000004, 194.24 2.5, 193.75 2.6, 193.24 2.7, 192.71 2.8000000000000003, 192.16 2.9000000000000004, 191.59 3, 191 " fill="none" stroke="black"/></svg>

