<?xml version="1.0" standalone="no"?>
<svg viewBox="0 0 200 200"  xmlns="http://www.w3.org/2000/svg">
<rect width="50" height="50" style="fill:pink;stroke-width:1;stroke:rgb(0,0,0)" />
<polyline points="0, 50 0.1, 49.5 0.2, 49 0.30000000000000004, 48.5 0.4, 48 0.5, 47.5 0.6000000000000001, 47 0.7000000000000001, 46.5 0.8, 46 0.9, 45.5 1, 45 1.1, 44.5 1.2000000000000002, 44 1.3, 43.5 1.4000000000000001, 43 1.5, 42.5 1.6, 42 1.7000000000000002, 41.5 1.8, 41 1.9000000000000001, 40.5 2, 40 2.1, 39.5 2.2, 39 2.3000000000000003, 38.5 2.4000000000000004, 38 2.5, 37.5 2.6, 37 2.7, 36.5 2.8000000000000003, 36 2.9000000000000004, 35.5 3, 35 " fill="none" stroke="black"/>
</svg>

