<?xml version="1.0" standalone="no"?>
<svg viewBox="0 0 600 600"  xmlns="http://www.w3.org/2000/svg">
<polyline points="2.1, 39.5 2.2, 39 2.3000000000000003, 38.5 2.4000000000000004, 38 2.5, 37.5 2.6, 37 2.7, 36.5 2.8000000000000003, 36 2.9000000000000004, 35.5 3, 35 3.1, 34.5 3.2, 34 3.3000000000000003, 33.5 3.4000000000000004, 33 3.5, 32.5 3.6, 32 3.7, 31.5 3.8000000000000003, 31 3.9000000000000004, 30.5 4, 30 4.1000000000000005, 29.499999999999996 4.2, 29 4.3, 28.5 4.4, 28 4.5, 27.5 4.6000000000000005, 26.999999999999996 4.7, 26.5 4.800000000000001, 25.999999999999996 4.9, 25.5 5, 25 5.1000000000000005, 24.499999999999996 5.2, 24 5.300000000000001, 23.499999999999996 5.4, 23 5.5, 22.5 5.6000000000000005, 21.999999999999996 5.7, 21.5 5.800000000000001, 20.999999999999996 5.9, 20.5 6, 20 6.1000000000000005, 19.499999999999996 6.2, 19 6.300000000000001, 18.499999999999996 6.4, 18 6.5, 17.5 6.6000000000000005, 17 6.7, 16.5 6.800000000000001, 16 6.9, 15.5 7, 15 7.1000000000000005, 14.5 7.2, 14 7.300000000000001, 13.5 7.4, 13 7.5, 12.5 7.6000000000000005, 12 7.7, 11.5 7.800000000000001, 11 7.9, 10.5 8, 10 8.1, 9.5 8.200000000000001, 8.999999999999993 8.3, 8.5 8.4, 8 8.5, 7.5 8.6, 7 8.700000000000001, 6.499999999999993 8.8, 6 8.9, 5.5 9, 5 9.1, 4.5 9.200000000000001, 3.999999999999993 9.3, 3.5 9.4, 3 9.5, 2.5 9.600000000000001, 1.999999999999993 9.700000000000001, 1.499999999999993 9.8, 1 9.9, 0.5 " fill="none" stroke="rgb(255, 0, 0)"/>
<polyline points="0.1, 35.2 0.2, 35.4 0.30000000000000004, 35.6 0.4, 35.8 0.5, 36 0.6000000000000001, 36.2 0.7000000000000001, 36.4 0.8, 36.6 0.9, 36.8 1, 37 1.1, 37.2 1.2000000000000002, 37.4 1.3, 37.6 1.4000000000000001, 37.8 1.5, 38 1.6, 38.2 1.7000000000000002, 38.4 1.8, 38.6 1.9000000000000001, 38.8 2, 39 2.1, 39.2 2.2, 39.4 2.3000000000000003, 39.6 2.4000000000000004, 39.8 2.5, 40 2.6, 40.2 2.7, 40.4 2.8000000000000003, 40.6 2.9000000000000004, 40.8 3, 41 3.1, 41.2 3.2, 41.4 3.3000000000000003, 41.6 3.4000000000000004, 41.8 3.5, 42 3.6, 42.2 3.7, 42.4 3.8000000000000003, 42.6 3.9000000000000004, 42.8 4, 43 4.1000000000000005, 43.2 4.2, 43.4 4.3, 43.6 4.4, 43.8 4.5, 44 4.6000000000000005, 44.2 4.7, 44.4 4.800000000000001, 44.6 4.9, 44.8 5, 45 5.1000000000000005, 45.2 5.2, 45.4 5.300000000000001, 45.6 5.4, 45.8 5.5, 46 5.6000000000000005, 46.2 5.7, 46.4 5.800000000000001, 46.6 5.9, 46.8 6, 47 6.1000000000000005, 47.2 6.2, 47.4 6.300000000000001, 47.6 6.4, 47.8 6.5, 48 6.6000000000000005, 48.2 6.7, 48.4 6.800000000000001, 48.6 6.9, 48.8 7, 49 7.1000000000000005, 49.2 7.2, 49.4 7.300000000000001, 49.6 7.4, 49.8 " fill="none" stroke="rgb(0, 255, 0)"/>
<polyline points="0.1, 49.9 0.2, 49.8 0.30000000000000004, 49.7 0.4, 49.6 0.5, 49.5 0.6000000000000001, 49.4 0.7000000000000001, 49.3 0.8, 49.2 0.9, 49.1 1, 49 1.1, 48.9 1.2000000000000002, 48.8 1.3, 48.7 1.4000000000000001, 48.6 1.5, 48.5 1.6, 48.4 1.7000000000000002, 48.3 1.8, 48.2 1.9000000000000001, 48.1 2, 48 2.1, 47.9 2.2, 47.8 2.3000000000000003, 47.7 2.4000000000000004, 47.6 2.5, 47.5 2.6, 47.4 2.7, 47.3 2.8000000000000003, 47.2 2.9000000000000004, 47.1 3, 47 3.1, 46.9 3.2, 46.8 3.3000000000000003, 46.7 3.4000000000000004, 46.6 3.5, 46.5 3.6, 46.4 3.7, 46.3 3.8000000000000003, 46.2 3.9000000000000004, 46.1 4, 46 4.1000000000000005, 45.9 4.2, 45.8 4.3, 45.7 4.4, 45.6 4.5, 45.5 4.6000000000000005, 45.4 4.7, 45.3 4.800000000000001, 45.2 4.9, 45.1 5, 45 5.1000000000000005, 44.9 5.2, 44.8 5.300000000000001, 44.7 5.4, 44.6 5.5, 44.5 5.6000000000000005, 44.4 5.7, 44.3 5.800000000000001, 44.2 5.9, 44.1 6, 44 6.1000000000000005, 43.9 6.2, 43.8 6.300000000000001, 43.7 6.4, 43.6 6.5, 43.5 6.6000000000000005, 43.4 6.7, 43.3 6.800000000000001, 43.2 6.9, 43.1 7, 43 7.1000000000000005, 42.9 7.2, 42.8 7.300000000000001, 42.7 7.4, 42.6 7.5, 42.5 7.6000000000000005, 42.4 7.7, 42.3 7.800000000000001, 42.2 7.9, 42.1 8, 42 8.1, 41.9 8.200000000000001, 41.8 8.3, 41.7 8.4, 41.6 8.5, 41.5 8.6, 41.4 8.700000000000001, 41.3 8.8, 41.2 8.9, 41.1 9, 41 9.1, 40.9 9.200000000000001, 40.8 9.3, 40.7 9.4, 40.6 9.5, 40.5 9.600000000000001, 40.4 9.700000000000001, 40.3 9.8, 40.2 9.9, 40.1 10, 40 10.100000000000001, 39.9 10.200000000000001, 39.8 10.3, 39.7 10.4, 39.6 10.5, 39.5 10.600000000000001, 39.4 10.700000000000001, 39.3 10.8, 39.2 10.9, 39.1 11, 39 11.100000000000001, 38.9 11.200000000000001, 38.8 11.3, 38.7 11.4, 38.6 11.5, 38.5 11.600000000000001, 38.4 11.700000000000001, 38.3 11.8, 38.2 11.9, 38.1 12, 38 12.100000000000001, 37.9 12.200000000000001, 37.8 12.3, 37.7 12.4, 37.6 12.5, 37.5 12.600000000000001, 37.4 12.700000000000001, 37.3 12.8, 37.2 12.9, 37.1 13, 37 13.100000000000001, 36.9 13.200000000000001, 36.8 13.3, 36.7 13.4, 36.6 13.5, 36.5 13.600000000000001, 36.4 13.700000000000001, 36.3 13.8, 36.2 13.9, 36.1 14, 36 14.100000000000001, 35.9 14.200000000000001, 35.8 14.3, 35.7 14.4, 35.6 14.5, 35.5 14.600000000000001, 35.4 14.700000000000001, 35.3 14.8, 35.2 14.9, 35.1 15, 35 15.100000000000001, 34.9 15.200000000000001, 34.8 15.3, 34.7 15.4, 34.6 15.5, 34.5 15.600000000000001, 34.4 15.700000000000001, 34.3 15.8, 34.2 15.9, 34.1 16, 34 16.1, 33.9 16.2, 33.8 16.3, 33.7 16.400000000000002, 33.599999999999994 16.5, 33.5 16.6, 33.4 16.7, 33.3 16.8, 33.2 16.900000000000002, 33.099999999999994 17, 33 17.1, 32.9 17.2, 32.8 17.3, 32.7 17.400000000000002, 32.599999999999994 17.5, 32.5 17.6, 32.4 17.7, 32.3 17.8, 32.2 17.900000000000002, 32.099999999999994 18, 32 18.1, 31.9 18.2, 31.8 18.3, 31.7 18.400000000000002, 31.599999999999998 18.5, 31.5 18.6, 31.4 18.7, 31.3 18.8, 31.2 18.900000000000002, 31.099999999999998 19, 31 19.1, 30.9 19.200000000000003, 30.799999999999997 19.3, 30.7 19.400000000000002, 30.599999999999998 19.5, 30.5 19.6, 30.4 19.700000000000003, 30.299999999999997 19.8, 30.2 19.900000000000002, 30.099999999999998 20, 30 20.1, 29.9 20.200000000000003, 29.799999999999997 20.3, 29.7 20.400000000000002, 29.599999999999998 20.5, 29.5 20.6, 29.4 20.700000000000003, 29.299999999999997 20.8, 29.2 20.900000000000002, 29.099999999999998 21, 29 21.1, 28.9 21.200000000000003, 28.799999999999997 21.3, 28.7 21.400000000000002, 28.599999999999998 21.5, 28.5 21.6, 28.4 21.700000000000003, 28.299999999999997 21.8, 28.2 21.900000000000002, 28.099999999999998 22, 28 22.1, 27.9 22.200000000000003, 27.799999999999997 22.3, 27.7 22.400000000000002, 27.599999999999998 22.5, 27.5 22.6, 27.4 22.700000000000003, 27.299999999999997 22.8, 27.2 22.900000000000002, 27.099999999999998 23, 27 23.1, 26.9 23.200000000000003, 26.799999999999997 23.3, 26.7 23.400000000000002, 26.599999999999998 23.5, 26.5 23.6, 26.4 23.700000000000003, 26.299999999999997 23.8, 26.2 23.900000000000002, 26.099999999999998 24, 26 24.1, 25.9 24.200000000000003, 25.799999999999997 24.3, 25.7 24.400000000000002, 25.599999999999998 24.5, 25.5 24.6, 25.4 24.700000000000003, 25.299999999999997 24.8, 25.2 24.900000000000002, 25.099999999999998 " fill="none" stroke="rgb(0, 0, 255)"/>
<rect width="50" height="50" style="fill:rgba(0,0,0,0);stroke-width:1;stroke:rgb(0,0,0)" />
</svg>

