<?xml version="1.0" standalone="no"?>
<svg viewBox="0 0 100 200"  xmlns="http://www.w3.org/2000/svg">
<polyline points="0, 0 0.1, 0.8 0.2, 1.6 0.30000000000000004, 2.4000000000000004 0.4, 3.2 0.5, 4 0.6000000000000001, 4.800000000000001 0.7000000000000001, 5.6000000000000005 0.8, 6.4 0.9, 7.2 1, 8 1.1, 8.8 1.2000000000000002, 9.600000000000001 1.3, 10.4 1.4000000000000001, 11.200000000000001 1.5, 12 1.6, 12.8 1.7000000000000002, 13.600000000000001 1.8, 14.4 1.9000000000000001, 15.200000000000001 2, 16 2.1, 16.8 2.2, 17.6 2.3000000000000003, 18.400000000000002 2.4000000000000004, 19.200000000000003 2.5, 20 2.6, 20.8 2.7, 21.6 2.8000000000000003, 22.400000000000002 2.9000000000000004, 23.200000000000003 3, 24 " fill="none" stroke="black"/></svg>
